<mxfile host="Electron" modified="2024-03-25T09:10:07.693Z" agent="Mozilla/5.0 (Macintosh; Intel Mac OS X 10_15_7) AppleWebKit/537.36 (KHTML, like Gecko) draw.io/24.1.0 Chrome/120.0.6099.109 Electron/28.1.0 Safari/537.36" etag="SY6bZSObwxWPQpWzefBT" version="24.1.0" type="device">
  <diagram id="rLW3mn1gu1OqKpcFvKVD" name="Weiche">
    <mxGraphModel dx="202" dy="135" grid="1" gridSize="10" guides="1" tooltips="1" connect="1" arrows="1" fold="1" page="0" pageScale="1" pageWidth="827" pageHeight="1169" math="0" shadow="0">
      <root>
        <mxCell id="0" />
        <mxCell id="1" parent="0" />
        <mxCell id="wHFSM_oYudzOZGSlA6EF-5" value="D2" style="ellipse;whiteSpace=wrap;html=1;aspect=fixed;" parent="1" vertex="1">
          <mxGeometry x="130" y="330" width="20" height="20" as="geometry" />
        </mxCell>
        <mxCell id="wHFSM_oYudzOZGSlA6EF-6" value="D3" style="ellipse;whiteSpace=wrap;html=1;aspect=fixed;" parent="1" vertex="1">
          <mxGeometry x="130" y="300" width="20" height="20" as="geometry" />
        </mxCell>
        <mxCell id="wHFSM_oYudzOZGSlA6EF-16" value="" style="endArrow=none;html=1;rounded=0;" parent="1" source="wHFSM_oYudzOZGSlA6EF-6" target="wHFSM_oYudzOZGSlA6EF-20" edge="1">
          <mxGeometry width="50" height="50" relative="1" as="geometry">
            <mxPoint x="150" y="310" as="sourcePoint" />
            <mxPoint x="200" y="260" as="targetPoint" />
          </mxGeometry>
        </mxCell>
        <mxCell id="wHFSM_oYudzOZGSlA6EF-19" value="" style="endArrow=none;html=1;rounded=0;" parent="1" source="wHFSM_oYudzOZGSlA6EF-5" target="wHFSM_oYudzOZGSlA6EF-20" edge="1">
          <mxGeometry width="50" height="50" relative="1" as="geometry">
            <mxPoint x="150" y="340" as="sourcePoint" />
            <mxPoint x="210" y="340" as="targetPoint" />
          </mxGeometry>
        </mxCell>
        <mxCell id="wHFSM_oYudzOZGSlA6EF-20" value="W" style="ellipse;whiteSpace=wrap;html=1;aspect=fixed;" parent="1" vertex="1">
          <mxGeometry x="170" y="330" width="20" height="20" as="geometry" />
        </mxCell>
        <mxCell id="Rsgk5lNmOdc-lB5J6tAF-1" value="" style="endArrow=none;html=1;rounded=0;" parent="1" edge="1">
          <mxGeometry width="50" height="50" relative="1" as="geometry">
            <mxPoint x="190" y="339.92" as="sourcePoint" />
            <mxPoint x="210" y="339.92" as="targetPoint" />
          </mxGeometry>
        </mxCell>
        <mxCell id="Rsgk5lNmOdc-lB5J6tAF-2" value="" style="endArrow=none;html=1;rounded=0;" parent="1" edge="1">
          <mxGeometry width="50" height="50" relative="1" as="geometry">
            <mxPoint x="110" y="339.92" as="sourcePoint" />
            <mxPoint x="130" y="339.92" as="targetPoint" />
          </mxGeometry>
        </mxCell>
        <mxCell id="Rsgk5lNmOdc-lB5J6tAF-3" value="" style="endArrow=none;html=1;rounded=0;" parent="1" edge="1">
          <mxGeometry width="50" height="50" relative="1" as="geometry">
            <mxPoint x="110" y="309.92" as="sourcePoint" />
            <mxPoint x="130" y="309.92" as="targetPoint" />
          </mxGeometry>
        </mxCell>
        <mxCell id="miaz4txjvGDI9IbZ72Mg-1" value="D1" style="ellipse;whiteSpace=wrap;html=1;aspect=fixed;" vertex="1" parent="1">
          <mxGeometry x="210" y="330" width="20" height="20" as="geometry" />
        </mxCell>
        <mxCell id="miaz4txjvGDI9IbZ72Mg-2" value="" style="endArrow=none;html=1;rounded=0;" edge="1" parent="1">
          <mxGeometry width="50" height="50" relative="1" as="geometry">
            <mxPoint x="230" y="339.92" as="sourcePoint" />
            <mxPoint x="250" y="339.92" as="targetPoint" />
          </mxGeometry>
        </mxCell>
      </root>
    </mxGraphModel>
  </diagram>
</mxfile>
